<svg version="1.1" viewBox="0.0 0.0 670.6115485564304 673.2204724409448" fill="none" stroke="none" stroke-linecap="square" stroke-miterlimit="10" xmlns:xlink="http://www.w3.org/1999/xlink" xmlns="http://www.w3.org/2000/svg"><clipPath id="p.0"><path d="m0 0l670.6116 0l0 673.22046l-670.6116 0l0 -673.22046z" clip-rule="nonzero"/></clipPath><g clip-path="url(#p.0)"><path fill="#000000" fill-opacity="0.0" d="m0 0l670.6116 0l0 673.22046l-670.6116 0z" fill-rule="evenodd"/><path fill="#efefef" d="m0.9055118 -0.5643045l670.6142 0l0 673.2284l-670.6142 0z" fill-rule="evenodd"/><path fill="#b7b7b7" d="m189.72966 277.71652l0 0c0 -80.1552 64.97864 -145.13385 145.13387 -145.13385l0 0l0 0c38.491882 0 75.40726 15.290848 102.62512 42.508728c27.217896 27.21788 42.508728 64.13324 42.508728 102.62512l0 49.102386c0 80.15521 -64.97864 145.13385 -145.13385 145.13385l0 0l0 0c-80.15523 0 -145.13387 -64.97864 -145.13387 -145.13385z" fill-rule="evenodd"/><path fill="#b7b7b7" d="m81.850395 859.8845l0 -181.77954l0 0c0 -100.39404 113.88184 -181.77951 254.36218 -181.77951c140.48038 0 254.36224 81.38547 254.36224 181.77951l0 181.77954z" fill-rule="evenodd"/></g></svg>